<?xml version="1.0" encoding="UTF-8"?>
<svg version="1.1" xmlns="http://www.w3.org/2000/svg" width="512" height="512">
<path d="M0 0 C1.59090962 0.4910293 3.18237183 0.98027127 4.77433777 1.46786499 C9.01779113 2.77267129 13.25355043 4.10092227 17.48818207 5.43403625 C21.89617255 6.81729746 26.31084949 8.17886007 30.72509766 9.54199219 C36.98285109 11.47621094 43.23851201 13.41693192 49.49161911 15.36611938 C59.79187365 18.57596015 70.10807846 21.72917036 80.4375 24.84375 C81.82081955 25.26150751 83.20411561 25.67934285 84.58738708 26.09725952 C89.73756494 27.6528844 94.88785178 29.2081184 100.04013062 30.7567749 C103.50110571 31.79848733 106.95976894 32.84755488 110.41796875 33.8984375 C111.90794624 34.34381363 111.90794624 34.34381363 113.42802429 34.79818726 C125.33337749 38.43299462 135.47790815 42.31010179 141.61644363 53.7931366 C144.87823493 60.56520931 145.27092837 66.39028483 145.18768311 73.81762695 C145.19704305 75.11798291 145.20640299 76.41833887 145.21604657 77.75809956 C145.24089291 81.33384369 145.22880807 84.90861636 145.21012926 88.48436213 C145.19647613 92.35360156 145.21754608 96.22268138 145.23400879 100.09188843 C145.2606118 107.65833536 145.2549604 115.22442408 145.23753294 122.79088473 C145.22395219 128.94327136 145.22215804 135.09555799 145.22867584 141.24795532 C145.22959524 142.12542964 145.23051464 143.00290396 145.2314619 143.90696841 C145.23338036 145.68984726 145.23532564 147.47272608 145.23729745 149.25560486 C145.25438421 165.9521224 145.23477018 182.6484419 145.20249525 199.34492695 C145.17569067 213.65420407 145.18034745 227.96318909 145.20800781 242.27246094 C145.24015682 258.91146111 145.25273647 275.55028795 145.23433423 292.18931484 C145.23242305 293.96543309 145.23053682 295.74155137 145.22867584 297.51766968 C145.22775019 298.39142834 145.22682454 299.26518701 145.22587083 300.16542321 C145.22070223 306.30650183 145.22940875 312.44746999 145.24355316 318.58853149 C145.26042534 326.07814362 145.25573533 333.56737871 145.2238687 341.05694795 C145.20815885 344.87433115 145.20182258 348.69108703 145.22176361 352.50846481 C145.24309826 356.65551592 145.21753314 360.8009995 145.18768311 364.94799805 C145.20106744 366.14218007 145.21445177 367.33636209 145.22824168 368.56673145 C145.10019068 377.76729532 142.63966174 385.64232215 136.43071055 392.62720776 C128.95619912 399.84745435 118.60341451 402.42894515 108.89453125 405.375 C107.66180984 405.75401459 106.42908844 406.13302917 105.15901184 406.52352905 C101.78743313 407.55966465 98.41363829 408.58838191 95.03909683 409.61482239 C92.91666425 410.26058641 90.7946206 410.90761285 88.67269897 411.55505371 C82.70168383 413.37681467 76.73044742 415.19782764 70.75737 417.01281738 C61.80710342 419.73367771 52.86500775 422.47934136 43.93097496 425.25305367 C37.29029868 427.31440965 30.64554525 429.36221914 23.99778175 431.40060234 C19.98711833 432.63101439 15.97874386 433.86795767 11.97509766 435.12103271 C8.18975985 436.30543887 4.3990193 437.47069913 0.60364342 438.62251663 C-0.78423904 439.04723092 -2.17012146 439.47855344 -3.55360985 439.91736984 C-13.50426688 443.06769527 -24.90581464 446.04103608 -35.01171875 441.8828125 C-40.90474484 438.32165049 -45.42621387 432.90295575 -47.57421875 426.3828125 C-47.82721841 423.11644524 -47.82721841 423.11644524 -47.83148766 419.32432842 C-47.83499373 418.62196927 -47.8384998 417.91961011 -47.84211212 417.19596735 C-47.85143419 414.83667684 -47.84650078 412.47763274 -47.84164429 410.11833191 C-47.84538014 408.41204877 -47.8499814 406.70576735 -47.85537493 404.99948865 C-47.86762834 400.30595918 -47.86734171 395.61250085 -47.86498618 390.91895902 C-47.86457861 385.85884903 -47.87561148 380.79876204 -47.88510132 375.73866272 C-47.90172508 365.82317946 -47.90721148 355.90771997 -47.90832607 345.99222394 C-47.90927589 337.93367372 -47.91338284 329.87513136 -47.91972733 321.81658363 C-47.93734342 298.97690893 -47.94656561 276.13725304 -47.94506638 253.2975715 C-47.94498647 252.06588414 -47.94490655 250.83419677 -47.94482422 249.56518555 C-47.94474246 248.33199702 -47.9446607 247.0988085 -47.94457646 245.82825062 C-47.94376343 225.83944085 -47.96290431 205.8507064 -47.99110095 185.86191841 C-48.01981429 165.34521097 -48.0336421 144.82854028 -48.0319134 124.31181222 C-48.03124897 112.79015537 -48.03676462 101.26857748 -48.0582695 89.74693871 C-48.07646088 79.93757872 -48.08084543 70.1283335 -48.06725065 60.31896397 C-48.06071072 55.31342413 -48.06064081 50.30810462 -48.07795715 45.3025856 C-48.09364754 40.71996735 -48.09086557 36.13774484 -48.07338889 31.55513648 C-48.07031009 29.8976831 -48.07398443 28.24020048 -48.08510904 26.58278158 C-48.14476518 17.06408213 -48.17012354 9.62744341 -41.609375 2.140625 C-40.95839844 1.60179687 -40.30742187 1.06296875 -39.63671875 0.5078125 C-38.98832031 -0.04648437 -38.33992188 -0.60078125 -37.671875 -1.171875 C-26.36624398 -8.96160214 -11.9028346 -3.79490344 0 0 Z M-15.57421875 31.3828125 C-15.57421875 155.4628125 -15.57421875 279.5428125 -15.57421875 407.3828125 C-10.61742056 406.67469847 -6.59299248 405.9170998 -1.90014648 404.47192383 C-1.26990979 404.2794296 -0.6396731 404.08693537 0.00966167 403.88860798 C2.08871568 403.25227147 4.16541321 402.60857761 6.2421875 401.96484375 C7.72241024 401.51026194 9.20278069 401.05616083 10.68328857 400.60250854 C14.63731884 399.38960385 18.58940891 398.17048969 22.54117203 396.95022202 C26.62221953 395.69125835 30.70506878 394.4381688 34.7878418 393.18481445 C39.69068807 391.6793698 44.5933998 390.17349602 49.49531555 388.6650238 C63.23404938 384.43731078 76.98366608 380.24608389 90.73828125 376.0703125 C93.52948939 375.22263913 96.32064203 374.37478486 99.1116333 373.52639771 C100.71132468 373.0401378 102.31112811 372.55424628 103.91107178 372.06881714 C106.76042645 371.20281563 109.60038562 370.32461104 112.42578125 369.3828125 C112.42578125 270.3828125 112.42578125 171.3828125 112.42578125 69.3828125 C86.46920864 61.30743436 60.52183906 53.23538874 34.49853516 45.38342285 C30.2340207 44.09628289 25.97023319 42.80673686 21.70639038 41.51737404 C18.40684707 40.51962041 15.10716366 39.52234238 11.80712891 38.5262146 C10.6319873 38.17128937 9.4568457 37.81636414 8.24609375 37.45068359 C7.11719727 37.11075378 5.98830078 36.77082397 4.82519531 36.42059326 C2.47892897 35.7043198 0.13734623 34.97258579 -2.20019531 34.22833252 C-3.35745117 33.86117126 -4.51470703 33.49401001 -5.70703125 33.11572266 C-7.25608154 32.6166893 -7.25608154 32.6166893 -8.83642578 32.10757446 C-11.74666921 31.21220601 -11.74666921 31.21220601 -15.57421875 31.3828125 Z " fill="#000000" transform="translate(335.57421875,36.6171875)"/>
<path d="M0 0 C4.26187285 2.56590957 7.72606132 5.47370594 11.23925781 8.98046875 C11.72459991 9.46230621 12.20994202 9.94414368 12.70999146 10.44058228 C14.29606812 12.0179313 15.87480428 13.60239318 17.453125 15.1875 C18.56047889 16.2935051 19.6681294 17.3992133 20.77606201 18.50463867 C23.08899805 20.81463598 25.39830271 23.12818707 27.70507812 25.44433594 C30.65952851 28.41020686 33.62290369 31.36697214 36.58903885 34.32115173 C38.87461565 36.59949895 41.15540447 38.8825913 43.43477631 41.16714478 C44.52573687 42.2594374 45.61817929 43.35025209 46.71213531 44.43954468 C48.23909277 45.96141596 49.75948094 47.48956367 51.27832031 49.01953125 C52.14402649 49.88682861 53.00973267 50.75412598 53.90167236 51.64770508 C57.48422543 55.66386596 58.30689717 58.52211754 58.375 63.875 C58.40335938 64.88304687 58.43171875 65.89109375 58.4609375 66.9296875 C57.5579782 72.9443147 53.18485745 77.0662897 49.01953125 81.23925781 C48.53769379 81.72459991 48.05585632 82.20994202 47.55941772 82.70999146 C45.9820687 84.29606812 44.39760682 85.87480428 42.8125 87.453125 C41.7064949 88.56047889 40.6007867 89.6681294 39.49536133 90.77606201 C37.18536402 93.08899805 34.87181293 95.39830271 32.55566406 97.70507812 C29.58979314 100.65952851 26.63302786 103.62290369 23.67884827 106.58903885 C21.40050105 108.87461565 19.1174087 111.15540447 16.83285522 113.43477631 C15.7405626 114.52573687 14.64974791 115.61817929 13.56045532 116.71213531 C12.03858404 118.23909277 10.51043633 119.75948094 8.98046875 121.27832031 C8.11317139 122.14402649 7.24587402 123.00973267 6.35229492 123.90167236 C1.41208482 128.30850898 -2.61883666 128.43838031 -9.0859375 128.3125 C-14.38740101 127.74397844 -16.83972495 125.22134216 -20.375 121.5 C-22.72325726 116.44221514 -22.97097307 111.48314207 -22 106 C-18.53890052 99.75197955 -13.31009349 95.08792774 -8.25 90.125 C-7.36183594 89.24585938 -6.47367188 88.36671875 -5.55859375 87.4609375 C-3.37687168 85.30267481 -1.19060654 83.14923832 1 81 C0.19639479 80.99853344 -0.60721043 80.99706688 -1.43516731 80.99555588 C-20.9901853 80.95850151 -40.54502445 80.899505 -60.0999012 80.81609726 C-69.55651254 80.77629075 -79.01304048 80.74390645 -88.46972656 80.72900391 C-96.71234496 80.71599574 -104.95477996 80.68905246 -113.19729507 80.64538693 C-117.56153746 80.62275328 -121.92555348 80.60709046 -126.28985977 80.60811615 C-130.39889239 80.60886164 -134.50742423 80.59095575 -138.61632729 80.55883217 C-140.12313745 80.55032336 -141.63000372 80.54858994 -143.13682747 80.55419731 C-145.19785024 80.56084459 -147.25728304 80.54290331 -149.31814575 80.51898193 C-150.47038698 80.51529476 -151.62262821 80.51160759 -152.80978584 80.50780869 C-157.83968768 79.70716405 -160.93061135 77.12567226 -164.375 73.5 C-166.77303575 68.33499991 -166.75381535 63.5997712 -166 58 C-163.68846812 53.02131594 -160.70895728 50.70247763 -156 48 C-152.80978584 47.49219131 -152.80978584 47.49219131 -149.31814575 47.48101807 C-148.67190148 47.47351681 -148.02565721 47.46601556 -147.35982978 47.458287 C-145.20846706 47.43809217 -143.05816659 47.44609541 -140.90673828 47.45410156 C-139.35906436 47.445362 -137.81139947 47.43487487 -136.26374817 47.42277527 C-132.07201633 47.39494132 -127.8805797 47.39151 -123.68876886 47.39249516 C-119.3044796 47.38936381 -114.92032286 47.36374097 -110.53610229 47.34051514 C-102.23834272 47.2999686 -93.94066171 47.2796176 -85.64281833 47.26654124 C-76.19417909 47.25066664 -66.74567346 47.21224906 -57.29711175 47.17194796 C-37.86478342 47.08956744 -18.43246774 47.03546379 1 47 C0.37432129 46.38479492 -0.25135742 45.76958984 -0.89599609 45.13574219 C-3.22216319 42.84372621 -5.54370904 40.54722384 -7.86230469 38.24755859 C-8.86538097 37.25451955 -9.87024767 36.26328553 -10.87695312 35.27392578 C-12.32640161 33.84882574 -13.76921773 32.41728832 -15.2109375 30.984375 C-16.08024902 30.12553711 -16.94956055 29.26669922 -17.84521484 28.38183594 C-22.31321783 23.44303726 -22.43906632 19.41640708 -22.3125 12.9140625 C-21.74397844 7.61259899 -19.22134216 5.16027505 -15.5 1.625 C-10.44221514 -0.72325726 -5.48314207 -0.97097307 0 0 Z " fill="#000000" transform="translate(198,192)"/>
<path d="M0 0 C4.97447267 2.3095766 7.31899945 5.280301 10 10 C10.48101807 13.3789978 10.48101807 13.3789978 10.45410156 17.10693359 C10.45468567 17.79055969 10.45526978 18.47418579 10.45587158 19.17852783 C10.45310371 21.41902975 10.42207681 23.65817051 10.390625 25.8984375 C10.38315791 27.45927199 10.37746719 29.02011589 10.37347412 30.58096313 C10.35825441 34.67468478 10.31900507 38.76783222 10.2746582 42.86132812 C10.23362584 47.04419183 10.21544617 51.22714898 10.1953125 55.41015625 C10.15250648 63.60703335 10.08430054 71.8034451 10 80 C10.86364166 79.99111755 11.72728333 79.98223511 12.61709595 79.9730835 C20.7679158 79.89283661 28.91860241 79.83198435 37.06972694 79.79275131 C41.26003538 79.77190282 45.45001659 79.74363584 49.64013672 79.69824219 C53.68612242 79.65468581 57.73179395 79.6308423 61.77799606 79.62049103 C63.31934935 79.61311714 64.86068602 79.59871743 66.40190506 79.57707977 C68.56599936 79.54791389 70.72880625 79.54404924 72.89306641 79.54589844 C74.12328522 79.53701599 75.35350403 79.52813354 76.6210022 79.51898193 C81.79530458 80.25557103 84.84228406 82.78135165 88.375 86.5 C90.77303575 91.66500009 90.75381535 96.4002288 90 102 C87.69117031 106.97286395 84.73015512 109.33644442 80 112 C77.29767813 112.37965261 75.00952306 112.54907477 72.31738281 112.51757812 C71.57179108 112.5245874 70.82619934 112.53159668 70.05801392 112.53881836 C67.60599928 112.55634649 65.15515036 112.5447901 62.703125 112.53125 C60.98687521 112.53394756 59.27062691 112.53783218 57.55438232 112.54284668 C53.95993477 112.54873567 50.36588551 112.54020259 46.77148438 112.52148438 C42.18741519 112.49876385 37.60428647 112.51177744 33.02025223 112.53577423 C29.47521022 112.55030757 25.93038683 112.54559076 22.38533783 112.53526306 C20.69662106 112.53261294 19.0078838 112.53580453 17.31919098 112.54518127 C5.70277799 112.59550843 -4.55541425 112.02784423 -13.46875 103.703125 C-19.66862875 96.8073415 -22.3025355 89.50618955 -22.29052734 80.25390625 C-22.29724457 79.50188934 -22.30396179 78.74987244 -22.31088257 77.97506714 C-22.32978715 75.50414315 -22.33378242 73.03349168 -22.3359375 70.5625 C-22.34236894 68.83666881 -22.34909756 67.1108387 -22.35610962 65.38500977 C-22.36806224 61.77390006 -22.37179235 58.1628859 -22.37060547 54.55175781 C-22.370402 49.93149459 -22.39774216 45.31184449 -22.43214989 40.69172668 C-22.45441422 37.12973225 -22.45844321 33.56788575 -22.45738602 30.00582886 C-22.45974121 28.30262126 -22.46856019 26.59940953 -22.48405075 24.89627075 C-22.50370901 22.51244348 -22.49787514 20.12994367 -22.48583984 17.74609375 C-22.49707886 17.04773407 -22.50831787 16.34937439 -22.51989746 15.62985229 C-22.45608273 10.64058194 -21.08290381 7.86370902 -18 4 C-12.72867143 -1.00776214 -6.89190982 -0.92775709 0 0 Z " fill="#000000" transform="translate(182,336)"/>
<path d="M0 0 C1.12802536 -0.01007584 1.12802536 -0.01007584 2.27883911 -0.02035522 C4.7497631 -0.03925981 7.22041457 -0.04325508 9.69140625 -0.04541016 C11.41723744 -0.0518416 13.14306755 -0.05857022 14.86889648 -0.06558228 C18.48000619 -0.0775349 22.09102035 -0.081265 25.70214844 -0.08007812 C30.32241166 -0.07987465 34.94206176 -0.10721481 39.56217957 -0.14162254 C43.124174 -0.16388687 46.6860205 -0.16791587 50.24807739 -0.16685867 C51.95128499 -0.16921387 53.65449672 -0.17803284 55.3576355 -0.19352341 C57.74146277 -0.21318167 60.12396258 -0.20734779 62.5078125 -0.1953125 C63.20617218 -0.20655151 63.90453186 -0.21779053 64.62405396 -0.22937012 C69.61332431 -0.16555538 72.39019723 1.20762354 76.25390625 4.29052734 C79.88224288 8.10982906 80.56391083 11.17331741 80.75390625 16.29052734 C80.56391083 21.40773728 79.88224288 24.47122562 76.25390625 28.29052734 C71.74682762 31.83696595 68.85860738 32.78586815 63.14697266 32.74462891 C62.46334656 32.74521301 61.77972046 32.74579712 61.07537842 32.74639893 C58.8348765 32.74363105 56.59573574 32.71260415 54.35546875 32.68115234 C52.79463426 32.67368525 51.23379036 32.66799453 49.67294312 32.66400146 C45.57922147 32.64878175 41.48607403 32.60953242 37.39257812 32.56518555 C33.20971442 32.52415318 29.02675727 32.50597352 24.84375 32.48583984 C16.6468729 32.44303382 8.45046115 32.37482788 0.25390625 32.29052734 C0.2627887 33.15416901 0.27167114 34.01781067 0.28082275 34.90762329 C0.36106964 43.05844315 0.4219219 51.20912976 0.46115494 59.36025429 C0.48200343 63.55056273 0.51027041 67.74054393 0.55566406 71.93066406 C0.59922044 75.97664976 0.62306395 80.02232129 0.63341522 84.06852341 C0.64078911 85.60987669 0.65518882 87.15121336 0.67682648 88.6924324 C0.70599236 90.8565267 0.70985701 93.0193336 0.70800781 95.18359375 C0.71689026 96.41381256 0.72577271 97.64403137 0.73492432 98.91152954 C-0.00166478 104.08583193 -2.5274454 107.13281141 -6.24609375 110.66552734 C-11.41109384 113.0635631 -16.14632255 113.0443427 -21.74609375 112.29052734 C-26.7189577 109.98169765 -29.08253817 107.02068247 -31.74609375 102.29052734 C-32.12574636 99.58820548 -32.29516852 97.30005041 -32.26367188 94.60791016 C-32.27068115 93.86231842 -32.27769043 93.11672668 -32.28491211 92.34854126 C-32.30244024 89.89652662 -32.29088385 87.4456777 -32.27734375 84.99365234 C-32.28004131 83.27740255 -32.28392593 81.56115425 -32.28894043 79.84490967 C-32.29482942 76.25046212 -32.28629634 72.65641285 -32.26757812 69.06201172 C-32.2448576 64.47794253 -32.25787119 59.89481381 -32.28186798 55.31077957 C-32.29640132 51.76573757 -32.29168451 48.22091418 -32.28135681 44.67586517 C-32.27870669 42.9871484 -32.28189828 41.29841114 -32.29127502 39.60971832 C-32.34160218 27.99330534 -31.77393798 17.73511309 -23.44921875 8.82177734 C-16.55343525 2.6218986 -9.2522833 -0.01200815 0 0 Z " fill="#000000" transform="translate(191.74609375,63.70947265625)"/>
<path d="M0 0 C4.96592669 2.30560882 7.41978039 5.22082111 10 10 C10.57098662 13.33824707 10.56124181 16.61943061 10.53125 20 C10.5350769 20.95390625 10.53890381 21.9078125 10.54284668 22.890625 C10.54556036 24.90105245 10.53823737 26.91151553 10.52148438 28.921875 C10.50006709 31.99038787 10.52130466 35.05655952 10.546875 38.125 C10.54423163 40.08333848 10.53910645 42.0416755 10.53125 44 C10.53934692 44.91265625 10.54744385 45.8253125 10.55578613 46.765625 C10.47405684 52.34723968 9.72311686 55.57473138 6 60 C2.18069828 63.62833663 -0.88279006 64.31000458 -6 64.5 C-11.11720994 64.31000458 -14.18069828 63.62833663 -18 60 C-22.42898965 54.73573631 -22.58960225 50.57725694 -22.53125 44 C-22.5350769 43.04609375 -22.53890381 42.0921875 -22.54284668 41.109375 C-22.54556036 39.09894755 -22.53823737 37.08848447 -22.52148438 35.078125 C-22.50006709 32.00961213 -22.52130466 28.94344048 -22.546875 25.875 C-22.54423163 23.91666152 -22.53910645 21.9583245 -22.53125 20 C-22.53934692 19.08734375 -22.54744385 18.1746875 -22.55578613 17.234375 C-22.47405684 11.65276032 -21.72311686 8.42526862 -18 4 C-12.72867143 -1.00776214 -6.89190982 -0.92775709 0 0 Z " fill="#000000" transform="translate(358,224)"/>
</svg>
